<?xml version="1.0" standalone="no"?>
<!DOCTYPE svg PUBLIC "-//W3C//DTD SVG 20010904//EN"
 "http://www.w3.org/TR/2001/REC-SVG-20010904/DTD/svg10.dtd">
<svg version="1.0" xmlns="http://www.w3.org/2000/svg"
 width="245.000000pt" height="245.000000pt" viewBox="0 0 245.000000 245.000000"
 preserveAspectRatio="xMidYMid meet">
<metadata>
Created by potrace 1.14, written by Peter Selinger 2001-2017
</metadata>
<g transform="translate(0.000000,245.000000) scale(0.100000,-0.100000)"
fill="#000000" stroke="none">
<path d="M0 1225 l0 -1225 1225 0 1225 0 0 1225 0 1225 -1225 0 -1225 0 0
-1225z m1490 796 l205 -200 -102 -103 -103 -103 -147 147 -148 146 -81 4 -80
3 -322 -315 -322 -315 0 -101 0 -101 315 -312 315 -311 93 0 92 0 313 313 312
312 0 114 0 115 95 95 95 95 60 -59 60 -59 0 -195 0 -195 -417 -418 -418 -418
-193 0 -193 0 -420 417 -419 416 0 197 0 197 323 315 c177 173 369 360 427
416 l105 101 175 1 175 0 205 -199z m775 32 l78 -117 -614 -608 c-338 -334
-616 -608 -619 -608 -3 0 -111 106 -240 235 l-235 235 103 102 102 103 137
-137 138 -136 530 524 c292 288 533 524 536 524 3 0 41 -53 84 -117z"/>
</g>
</svg>
